<svg
class="icon"
xmlns="http://www.w3.org/2000/svg"
xmlns:inkscape="http://www.inkscape.org/namespaces/inkscape"
width="24"
height="24"
viewBox="0 0 334.0382 334.03823">
  <g transform="translate(-211.53325,-339.60975)">
    <path
       inkscape:connector-curvature="0"
       d="m 309.82145,673.54086 -79.75,-0.10709 -4.32336,-0.96627 -4.32335,-0.96626 -3.83717,-3.83717 -3.83718,-3.83718 -1.10857,-5.33996 -1.10857,-5.33997 0.2691,-149.99951 0.2691,-149.9995 1.37496,-2.5 c 0.75623,-1.375 2.33123,-3.55526 3.5,-4.84501 1.16877,-1.28976 3.47504,-3.08976 5.12504,-4 l 3,-1.65499 149.9995,-0.2691 149.99951,-0.2691 5.33997,1.10857 5.33996,1.10857 3.80505,3.80505 3.80504,3.80504 1.10548,5.1547 1.10549,5.15471 0,146.90156 0,146.90156 -1.10549,5.15471 -1.10548,5.1547 -3.78903,3.78903 -3.78903,3.78903 -5.1547,1.10548 -5.15471,1.10549 -41.45078,0 -41.45078,0 0,-64.5 0,-64.5 21.48095,0 21.48095,0 0.50652,-2.25 c 0.27858,-1.2375 1.6529,-11.475 3.05405,-22.75 1.40114,-11.275 2.79253,-21.7375 3.09198,-23.25 l 0.54446,-2.75 -25.07945,0 -25.07946,0 0.006,-19.25 0.006,-19.25 1.04898,-3.77733 1.04897,-3.77734 3.03957,-3.46187 3.03957,-3.46188 5.08738,-1.51079 5.08653,-1.51079 16.8185,0 16.8185,0 0,-22.92804 0,-22.92805 -5.75,-0.76834 -5.75,-0.76834 -21,-0.0536 -21,-0.0536 -6.41475,1.82007 c -3.52811,1.00103 -9.37788,3.25103 -12.9995,5 l -6.58476,3.17993 -7.09765,7 -7.09764,7 -3.63782,7.5 c -2.0008,4.125 -4.3876,10.2 -5.30401,13.5 l -1.66619,6 -0.44602,26.25 -0.44602,26.25 -21.90282,0 -21.90282,0 0,25.5 0,25.5 22,0 22,0 0,64.5 0,64.5 -79.75,-0.10709 z"
       style="fill-opacity:1" />
  </g>
</svg>