<svg class="icon" xmlns="http://www.w3.org/2000/svg" xmlns:inkscape="http://www.inkscape.org/namespaces/inkscape" width="24" height="24" viewBox="0 0 199.99999 199.99999"><g transform="translate(-265.71426,-412.36221)"><path d="m 367.14284,613.79078 -100,0 0,-100 0,-100 100,0 100,0 0,100 0,100 -100,0 z m -0.48311,-48.88696 c 2.14054,0.0754 6.92179,-0.4334 10.625,-1.13053 l 6.73311,-1.26747 6.875,-3.34705 6.875,-3.34705 6.32297,-6.32296 6.32297,-6.32298 3.42312,-7.00743 3.42312,-7.00744 1.35137,-8.15523 1.35136,-8.15522 -1.39487,-7.91884 -1.39488,-7.91883 -3.37961,-6.91851 -3.37961,-6.9185 -6.32297,-6.32297 -6.32297,-6.32297 -6.9185,-3.37961 -6.91851,-3.37961 -7.91883,-1.39487 -7.91884,-1.39488 -8.15522,1.35136 -8.15523,1.35137 -7.00744,3.42312 -7.00743,3.42312 -6.32297,6.32297 -6.32297,6.32297 -3.37961,6.9185 -3.37961,6.9185 -1.39487,7.91884 -1.39488,7.91884 1.35137,8.15522 1.35136,8.15523 3.42312,7.00744 3.42312,7.00743 6.32297,6.32298 6.32297,6.32296 6.93163,3.38603 6.93163,3.38603 5.56837,1.09155 c 3.0626,0.60034 7.31972,1.15316 9.46026,1.22849 z m -10.36821,-29.17272 -6.02368,0.59294 -5,-1.82702 -5,-1.82702 -3.92711,-4.49125 -3.92711,-4.49125 -1.37594,-5.46436 -1.37594,-5.46436 0.79407,-4.1715 c 0.43674,-2.29432 1.50405,-5.57775 2.37179,-7.2965 0.86774,-1.71875 2.90445,-4.36378 4.52603,-5.87784 1.62158,-1.51406 5.03196,-3.62344 7.57862,-4.6875 l 4.63029,-1.93466 4.4553,0 4.4553,0 4.02235,1.79089 c 2.21229,0.98498 4.85622,2.36461 5.8754,3.06583 l 1.85304,1.27496 -3.5925,3.74975 -3.59249,3.74976 -3.7249,-1.92622 -3.7249,-1.92622 -4.1478,0.77813 -4.1478,0.77813 -3.20035,3.8034 -3.20035,3.8034 0,5.00025 0,5.00025 3.58983,3.58983 3.58983,3.58983 3.41707,0.85763 3.41708,0.85763 4.16951,-1.9883 4.16952,-1.98831 1.36756,-2.55531 1.36756,-2.55531 -6.29398,0 -6.29398,0 0,-5 0,-5 11.16577,0 11.16576,0 0.80239,2.52809 0.80238,2.52809 -0.8707,4.03441 c -0.47888,2.21893 -1.90956,6.0871 -3.17929,8.59595 l -2.30859,4.56153 -4.32768,2.67465 -4.32768,2.67465 -6.02368,0.59295 z m 37.72632,-13.19032 -3.125,0 0,-3.75 0,-3.75 -4.375,0 -4.375,0 0,-3.75 0,-3.75 4.375,0 4.375,0 0,-3.75 0,-3.75 3.125,0 3.125,0 0,3.6708 0,3.6708 4.0625,0.3917 4.0625,0.3917 0,3.125 0,3.125 -4.0625,0.3917 -4.0625,0.3917 0,3.6708 0,3.6708 -3.125,0 z" /></g></svg>