<svg class="icon" xmlns="http://www.w3.org/2000/svg" xmlns:inkscape="http://www.inkscape.org/namespaces/inkscape" width="24" height="24" viewBox="0 0 630.00001 630.00001"><g transform="translate(-44.999988,-200.21934)"><path d="m 44.999988,515.21934 0,-315 315.000012,0 315,0 0,315 0,315 -315,0 -315.000012,0 0,-315 z M 476.875,765.37597 c 24.54645,-2.8561 42.43262,-7.78846 59.55907,-16.42423 14.04169,-7.08034 20.02669,-11.33416 31.51225,-22.3973 11.89683,-11.45927 18.752,-20.82302 26.14327,-35.7101 8.95751,-18.04175 13.37523,-34.64679 16.12907,-60.625 2.36019,-22.2647 2.36019,-207.7353 0,-230 -2.75384,-25.97821 -7.17156,-42.58325 -16.12907,-60.625 -7.39127,-14.88708 -14.24644,-24.25083 -26.14327,-35.7101 C 556.24481,292.61309 550.29435,288.43016 535.49656,281.07339 517.6075,272.17977 500.9332,267.74975 475,265.00068 c -22.2647,-2.36019 -207.7353,-2.36019 -230,0 -25.9332,2.74907 -42.6075,7.17909 -60.49656,16.07271 -14.79779,7.35677 -20.74825,11.5397 -32.44976,22.81085 -11.89683,11.45927 -18.752,20.82302 -26.14326,35.7101 -8.95753,18.04175 -13.37524,34.64679 -16.12908,60.625 -2.36019,22.2647 -2.36019,207.7353 0,230 2.74907,25.9332 7.17909,42.6075 16.07271,60.49656 7.35677,14.79779 11.5397,20.74825 22.81085,32.44977 11.45927,11.89682 20.82302,18.752 35.7101,26.14326 22.21957,11.03176 39.34301,14.6917 82.5,17.63342 16.6324,1.13373 198.44966,-0.22245 210,-1.56638 z m -210,-48.89929 c -24.40039,-1.38808 -37.04759,-3.33249 -49.29594,-7.57893 -13.71276,-4.75412 -22.29961,-10.0224 -31.76735,-19.49012 -14.62551,-14.62553 -21.87182,-31.5198 -25.4581,-59.35383 -1.87706,-14.5683 -2.15294,-29.2833 -2.15294,-114.83446 0,-85.55116 0.27588,-100.26616 2.15294,-114.83446 3.58628,-27.83403 10.83259,-44.7283 25.4581,-59.35383 14.62553,-14.62551 31.5198,-21.87182 59.35383,-25.4581 14.5683,-1.87705 29.2833,-2.15294 114.83446,-2.15294 85.55116,0 100.26616,0.27589 114.83446,2.15294 27.83403,3.58628 44.7283,10.83259 59.35383,25.4581 14.62551,14.62553 21.87182,31.5198 25.4581,59.35383 1.87706,14.5683 2.15293,29.2833 2.15293,114.83446 0,85.55116 -0.27587,100.26616 -2.15293,114.83446 -3.59227,27.88053 -10.823,44.70535 -25.50058,59.33604 -9.58586,9.55524 -18.07484,14.76915 -31.89161,19.58775 -19.90548,6.94204 -31.72503,7.68072 -129.7542,8.10933 -48.46875,0.21191 -96,-0.0628 -105.625,-0.61024 z m 119.46756,-73.04442 c 26.35451,-5.58136 45.71689,-16.25704 65.6651,-36.20526 16.09693,-16.09692 25.33778,-30.46042 31.5195,-48.99231 5.46513,-16.38365 6.91121,-25.38405 6.91121,-43.01535 0,-24.98034 -5.40248,-45.28839 -17.62426,-66.25 C 463.10662,432.32 442.89934,412.11271 426.25,402.40523 405.28839,390.18345 384.98034,384.78096 360,384.78096 c -24.98034,0 -45.28839,5.40249 -66.25,17.62427 -16.64934,9.70748 -36.85663,29.91477 -46.56411,46.56411 -12.22178,20.96161 -17.62427,41.26966 -17.62427,66.25 0,17.6313 1.44609,26.6317 6.91122,43.01535 6.18172,18.53189 15.42257,32.89539 31.5195,48.99231 23.38668,23.38669 43.92867,33.25457 80.13266,38.4938 6.40427,0.9268 29.59144,-0.4617 38.21756,-2.28854 z m -46.8464,-50.20653 c -20.04626,-4.85028 -40.48424,-21.05863 -50.39135,-39.9629 -6.61597,-12.6243 -9.06786,-22.911 -9.06786,-38.04349 0,-15.13249 2.45189,-25.41919 9.06786,-38.04349 10.05574,-19.18789 30.41825,-35.17801 50.96411,-40.02072 10.32838,-2.43443 29.53378,-2.43443 39.86215,0 27.08802,6.38471 51.74843,31.04512 58.13314,58.13313 2.43443,10.32838 2.43443,29.53378 0,39.86215 -6.38471,27.08802 -31.04512,51.74843 -58.13314,58.13314 -10.02813,2.36365 -30.54813,2.33431 -40.43491,-0.0579 z M 507.00347,411.40715 c 12.07274,-5.84432 20.50195,-20.7577 18.79039,-33.24492 -0.88905,-6.48628 -5.65904,-16.28309 -9.73262,-19.98933 -4.40364,-4.0065 -12.87454,-7.90726 -18.9924,-8.74581 -12.49953,-1.71325 -27.4096,6.7104 -33.25665,18.78878 -5.20524,10.75258 -2.5064,27.18603 5.949,36.22407 8.51598,9.10279 26.0534,12.38365 37.24228,6.96721 z"/></g></svg>