<svg class="icon" xmlns="http://www.w3.org/2000/svg" xmlns:inkscape="http://www.inkscape.org/namespaces/inkscape" width="24" height="24" viewBox="0 0 160 158.74999"><g transform="translate(-282.85715,-435.84433)"><path d="m 286.511,590.94048 -3.65385,-3.65384 0,-72.42758 c 0,-71.38029 0.0375,-72.47521 2.59073,-75.72116 l 2.59072,-3.29357 74.81855,0 74.81855,0 2.59073,3.29357 c 2.55326,3.24595 2.59072,4.34087 2.59072,75.72116 l 0,72.42758 -3.65385,3.65384 -3.65384,3.65385 -72.69231,0 -72.69231,0 -3.65384,-3.65385 z m 43.84615,-58.22115 0,-38.125 -11.875,0 -11.875,0 0,38.125 0,38.125 11.875,0 11.875,0 0,-38.125 z m 38.77982,17.8125 c 0.0164,-11.17187 0.53964,-22.51046 1.16276,-25.19685 1.50696,-6.49683 5.97857,-10.76677 12.14086,-11.59331 4.07626,-0.54674 5.62057,-0.10234 8.62823,2.48296 l 3.66333,3.14889 0.40464,25.73541 0.40463,25.7354 11.78287,0 11.78286,0 0,-27.89812 c 0,-32.32022 -1.08205,-38.2504 -8.10432,-44.41604 -8.18001,-7.18215 -21.04545,-8.48363 -31.64568,-3.20131 -3.56998,1.779 -7.61792,4.66736 -8.99544,6.41858 l -2.50456,3.18404 0,-5.16858 0,-5.16857 -11.25,0 -11.25,0 0,38.125 0,38.125 11.875,0 11.875,0 0.0298,-20.3125 z m -43.7389,-67.83366 c 9.65509,-4.99284 9.65509,-19.96484 0,-24.95768 -12.83911,-6.63936 -26.03783,6.54849 -19.40021,19.38423 3.52407,6.81479 12.18699,9.30355 19.40021,5.57345 z" /></g></svg>