<svg class="icon" xmlns="http://www.w3.org/2000/svg" xmlns:inkscape="http://www.inkscape.org/namespaces/inkscape" width="24" height="24" viewBox="0 0 640 640"><g transform="translate(-75.325603,-186.96483)"><path d="m 75.325603,506.96483 0,-320 319.999997,0 320,0 0,320 0,320 -320,0 -319.999997,0 0,-320 z M 489.7006,743.31404 c 42.16928,-7.4621 71.7555,-21.976 79.78881,-39.14143 l 2.18424,-4.66722 -11.20474,-27.20778 c -18.555,-45.05599 -23.78735,-56.99347 -25.4411,-58.04328 -0.86748,-0.55068 -14.79596,-1.01845 -30.95221,-1.0395 -16.2731,-0.0213 -30.21129,-0.56657 -31.25,-1.22275 -1.61454,-1.01991 -1.92642,-9.35206 -2.24512,-59.98085 l -0.37011,-58.7964 39.80761,0 c 29.29482,0 40.20375,-0.39614 41.30762,-1.5 1.12182,-1.12182 1.5,-15.55555 1.5,-57.25 0,-41.69445 -0.37818,-56.12817 -1.5,-57.25 -1.10378,-1.10377 -12,-1.5 -41.25,-1.5 l -39.75,0 0,-54.125 c 0,-40.43055 -0.37953,-54.50452 -1.5,-55.625 -1.13165,-1.13165 -18.70497,-1.49326 -71.5625,-1.47255 -78.68697,0.0308 -76.20543,-0.24418 -84.08818,9.31896 -3.96455,4.8097 -4.60719,6.72035 -9.04879,26.90359 -8.38088,38.08384 -40.69037,73.79534 -76.22942,84.25595 -3.74215,1.10148 -7.24916,2.70386 -7.79336,3.56086 -1.7125,2.6968 -1.26052,101.45043 0.47225,103.18319 1.06303,1.06304 8.52777,1.5 25.625,1.5 l 24.125,0 0.0247,63.4375 c 0.0138,35.30106 0.5772,67.31839 1.2703,72.1875 1.60151,11.2507 7.88885,31.57705 12.74942,41.21764 9.58353,19.00818 24.9509,36.12617 43.47739,48.4302 21.83674,14.50249 44.82812,22.07759 80.91364,26.65908 19.93896,2.53151 61.60877,1.58797 80.93948,-1.83271 z m -45,-25.2202 c -15.31085,-2.17647 -25.36917,-5.26691 -39.30613,-12.07691 -12.77264,-6.24109 -15.5194,-8.20629 -25.625,-18.33375 -12.00639,-12.03235 -17.06587,-19.52992 -23.8346,-35.32017 -8.40799,-19.61437 -8.47245,-20.35822 -9.02262,-104.11643 -0.33259,-50.63309 -0.93342,-76.11965 -1.81965,-77.1875 -0.98933,-1.19206 -7.43935,-1.59425 -25.56728,-1.59425 l -24.24417,0 0.33472,-30.07436 0.33473,-30.07438 8.27281,-3.48952 c 12.18232,-5.13858 28.74476,-16.41812 38.64529,-26.31864 9.22641,-9.22641 20.62397,-25.58371 25.47316,-36.558 4.65459,-10.5339 10.45712,-29.7398 12.71705,-42.09238 l 2.08432,-11.39272 31.09119,0 31.09118,0 0,54.125 c 0,40.43055 0.37952,54.50453 1.5,55.625 1.10475,1.10475 12.13888,1.5 41.875,1.5 l 40.375,0 0,34.375 0,34.375 -40.47195,0 c -33.04514,0 -40.7368,0.31915 -41.91532,1.73916 -1.06263,1.2804 -1.3503,20.15723 -1.09055,71.5625 0.3496,69.18754 0.37852,69.88684 3.17532,76.79753 3.85028,9.51376 10.23556,16.57221 18.77218,20.75129 10.12255,4.95544 28.89017,5.66734 44.17107,1.67552 5.76633,-1.50634 11.25106,-2.83154 12.18828,-2.9449 1.15262,-0.1394 4.9161,9.04136 11.63009,28.3708 11.41663,32.86825 11.60221,30.08722 -2.49885,37.44529 -22.85916,11.92811 -59.20619,17.37257 -88.33527,13.23182 z" /></g></svg> 