<svg class="icon" xmlns="http://www.w3.org/2000/svg" xmlns:inkscape="http://www.inkscape.org/namespaces/inkscape" width="24" height="24" viewBox="0 0 750.00002 750.00001"><g transform="translate(0.71427257,-103.07647)"><path d="m -0.71427257,478.07647 0,-375 374.99999257,0 375.00004,0 0,375 0,375 -375.00004,0 -374.99999257,0 0,-375 z M 527.41072,636.32919 c 27.39224,-1.8188 36.24558,-2.91456 45.25582,-5.60123 7.31107,-2.18003 19.46093,-9.39795 26.22407,-15.57909 12.68109,-11.5898 21.79953,-35.93655 25.58838,-68.3224 1.2331,-10.54016 1.6702,-34.04936 1.63851,-88.125 -0.0364,-61.99365 -0.37686,-76.14113 -2.1362,-88.75 -5.77034,-41.35509 -17.06639,-62.52599 -39.62324,-74.26135 -13.49705,-7.02194 -21.20522,-8.52624 -56.32234,-10.9916 -25.62882,-1.79926 -50.20185,-2.15793 -150.625,-2.19854 -162.147,-0.0655 -190.09355,1.58586 -211.94898,12.52453 -24.01719,12.02061 -35.7141,34.88903 -40.88168,79.92696 -2.7585,24.04175 -3.15956,141.98996 -0.5653,166.25 5.09225,47.61982 15.83459,70.72562 38.44573,82.69327 14.87015,7.8705 30.93373,10.78103 71.20023,12.90062 38.90844,2.04808 50.59829,2.17713 162.5,1.79387 75.21462,-0.25761 110.15322,-0.85924 131.25,-2.26004 z m -200.625,-182.02722 0,-65.21305 5.3125,3.04094 c 2.92188,1.67251 31.04688,16.44587 62.5,32.8297 31.45313,16.38381 57.1875,30.14425 57.1875,30.57875 0,0.95892 -10.7596,6.28816 -12.69563,6.28816 -1.21763,0 -53.99649,27.00718 -96.99187,49.63116 l -15.3125,8.05739 0,-65.21305 z"/></g></svg>